
		<svg xmlns="http://www.w3.org/2000/svg" xmlns:xlink="http://www.w3.org/1999/xlink" version="1.1" width="3055.813953488372" height="976.7441860465117">
			
			<g transform="scale(2.7906976744186047) translate(10, 10)">
				<defs id="SvgjsDefs7303"/><g id="SvgjsG7304" featureKey="root" fill="#000" transform="matrix(1,0,0,1,0,0)"/><g id="SvgjsG7305" featureKey="symbol1" fill="#000" transform="matrix(2.2125227882825027,0,0,2.2125227882825027,0,-0.0006380109171293391)"><g xmlns="http://www.w3.org/2000/svg" display="none"><path display="inline" fill="#000000" d="M50.022,15.392c-19.651,0-35.585,15.927-35.585,35.583   c0,19.656,15.933,35.59,35.585,35.59c19.66,0,35.588-15.934,35.588-35.59C85.61,31.318,69.682,15.392,50.022,15.392z    M69.054,55.473l4.653-4.648h2.354c0.979,0,1.77,0.787,1.77,1.768l-0.024-0.074c0,0.979,0.796,1.77,1.775,1.77v4.299l0.923,0.581   C76.899,72.629,64.622,82.54,50.021,82.54c-17.43,0-31.562-14.13-31.562-31.562c0-1.421,0.102-2.816,0.283-4.179l4.495,6.712h3.218   v-4.039h3.838c1.579,0,2.857-1.281,2.857-2.855h3.272l3.421-3.421v-3.174l-3.387-3.388h-3.442v2.816h-3.339   c-1.778,0-3.218-1.443-3.218-3.223c0-1.773,1.44-3.218,3.218-3.218v-3.297h-2.975c5.772-6.331,14.083-10.305,23.323-10.305   c9.1,0,17.293,3.86,23.05,10.014"/><path display="inline" fill="#000000" d="M29.931,59.769c0,2.088,1.691,3.78,3.781,3.78v12.476l3.205,1.571v-2.373l5.755-5.757   v-2.774c2.092,0,3.779-1.695,3.779-3.783l0.018-2.693h-3.356l-6.559-6.68l-10.099-0.024l3.461,3.564L29.931,59.769z"/><path display="inline" fill="#000000" d="M50.022,42.178c1.408,0,7.076,9.345,7.076-0.12l-2.42-1.55L50.022,42.178z"/><path display="inline" fill="#000000" d="M62.339,49.25h-11.8c-1.246,0-2.251,1.005-2.251,2.254v2.163   c0,3.748,3.038,6.791,6.785,6.791h3.458v8.025l3.183,3.179h3.178v-3.501l3.219-3.214v-5.783c1.175,0,2.134-0.953,2.134-2.132   h-2.056L62.339,49.25z"/><path display="inline" fill="#000000" d="M38.037,25.858l-2.469,3.758l1.402,2.144l0.029,3.369l3.387,3.391l2.026-4.658   c3.299,0,5.965-2.671,5.965-5.965L38.037,25.858z"/><path display="inline" fill="#000000" d="M66.176,69.729v1.934c1.067,0,1.934-0.864,1.934-1.934v-1.93   C67.042,67.799,66.176,68.665,66.176,69.729z"/><path display="inline" fill="#000000" d="M53.232,39.107h2.42v-2.41C54.318,36.697,53.232,37.779,53.232,39.107z"/></g><path xmlns="http://www.w3.org/2000/svg" fill="#000000" d="M39.74,2.399l-0.255-1.1c1.479-0.344,2.989-0.619,4.49-0.83l0.158,1.121  C42.664,1.793,41.185,2.068,39.74,2.399z"/><path xmlns="http://www.w3.org/2000/svg" fill="#000000" d="M61.917,2.333c-1.442-0.328-2.919-0.587-4.403-0.777l0.15-1.122c1.515,0.195,3.027,0.464,4.497,0.795  L61.917,2.333z"/><path xmlns="http://www.w3.org/2000/svg" fill="#000000" d="M48.589,1.184l-0.053-1.129c1.524-0.071,3.071-0.071,4.572-0.011l-0.042,1.132  C51.574,1.114,50.075,1.114,48.589,1.184z"/><path xmlns="http://www.w3.org/2000/svg" fill="#000000" d="M7.252,77.205c0.784,1.306,1.633,2.586,2.525,3.809l0.914-0.669c-0.872-1.192-1.704-2.441-2.473-3.722  L7.252,77.205z"/><path xmlns="http://www.w3.org/2000/svg" fill="#000000" d="M3.267,68.983c0.54,1.431,1.146,2.845,1.806,4.199l1.015-0.493c-0.642-1.324-1.236-2.707-1.766-4.102  L3.267,68.983z"/><path xmlns="http://www.w3.org/2000/svg" fill="#000000" d="M0.826,60.179c0.275,1.498,0.617,2.999,1.022,4.455l1.09-0.301c-0.396-1.427-0.731-2.893-1-4.358  L0.826,60.179z"/><path xmlns="http://www.w3.org/2000/svg" fill="#000000" d="M1.13,51.082H0c0.002,1.518,0.073,3.054,0.21,4.569l1.125-0.102C1.2,54.065,1.131,52.564,1.13,51.082z"/><path xmlns="http://www.w3.org/2000/svg" fill="#000000" d="M1.906,42.183l-1.113-0.2c-0.264,1.493-0.467,3.015-0.6,4.535l1.125,0.096  C1.449,45.129,1.645,43.637,1.906,42.183z"/><path xmlns="http://www.w3.org/2000/svg" fill="#000000" d="M4.255,33.562l-1.059-0.393c-0.533,1.435-1.005,2.896-1.402,4.349l1.091,0.299  C3.274,36.398,3.736,34.967,4.255,33.562z"/><path xmlns="http://www.w3.org/2000/svg" fill="#000000" d="M8.117,25.509l-0.972-0.577c-0.776,1.302-1.502,2.658-2.16,4.031l1.019,0.485  C6.647,28.111,7.358,26.781,8.117,25.509z"/><path xmlns="http://www.w3.org/2000/svg" fill="#000000" d="M9.661,21.114l0.915,0.662c0.871-1.202,1.807-2.379,2.782-3.5l-0.853-0.743  C11.506,18.677,10.55,19.885,9.661,21.114z"/><path xmlns="http://www.w3.org/2000/svg" fill="#000000" d="M19.088,11.207c-1.179,0.943-2.336,1.959-3.433,3.01l0.782,0.821c1.075-1.034,2.207-2.031,3.357-2.949  L19.088,11.207z"/><path xmlns="http://www.w3.org/2000/svg" fill="#000000" d="M86.074,14.006c-1.095-1.042-2.256-2.048-3.447-2.998l-0.707,0.888c1.172,0.926,2.305,1.911,3.379,2.93  L86.074,14.006z"/><path xmlns="http://www.w3.org/2000/svg" fill="#000000" d="M27.234,7.137l-0.54-0.989c-1.324,0.715-2.641,1.509-3.916,2.357l0.628,0.936  C24.651,8.614,25.939,7.842,27.234,7.137z"/><path xmlns="http://www.w3.org/2000/svg" fill="#000000" d="M78.917,8.329c-1.266-0.831-2.585-1.616-3.935-2.336L74.454,6.99C75.764,7.69,77.059,8.46,78.3,9.272  L78.917,8.329z"/><path xmlns="http://www.w3.org/2000/svg" fill="#000000" d="M35.434,3.599l-0.354-1.072c-1.455,0.477-2.894,1.024-4.272,1.621l0.446,1.038  C32.604,4.601,34.013,4.071,35.434,3.599z"/><path xmlns="http://www.w3.org/2000/svg" fill="#000000" d="M70.862,4.023c-1.392-0.586-2.834-1.125-4.288-1.593l-0.345,1.077c1.423,0.455,2.831,0.981,4.191,1.559  L70.862,4.023z"/><path xmlns="http://www.w3.org/2000/svg" fill="#000000" d="M99.129,26.774l-2.716-2.711l1.117-9.237l-1.241-1.23l-3.197,7.139l-1.85-1.846  c-0.161-0.163-0.379-0.287-0.609-0.361l0.624-3.083l-0.992-0.993l-1.476,3.457l-3.455,1.474l0.989,0.994l3.087-0.624  c0.075,0.229,0.199,0.446,0.362,0.61l1.85,1.85l-7.144,3.201l1.227,1.236l9.245-1.112l2.707,2.711  c0.5,0.507,1.162,0.816,1.873,0.867c0.124,0,0.247-0.036,0.339-0.124c0.084-0.089,0.138-0.211,0.129-0.335  C99.946,27.94,99.636,27.278,99.129,26.774z"/><path xmlns="http://www.w3.org/2000/svg" fill="#000000" d="M51.09,15.112c-18.253,0-33.101,14.848-33.101,33.101c0,18.251,14.848,33.101,33.101,33.101  c18.251,0,33.101-14.85,33.101-33.101C84.191,29.96,69.341,15.112,51.09,15.112z M78.073,53.609c0.601,0.607,0.87,1.167,0.991,1.774  C75.867,67.848,64.537,77.089,51.09,77.089c-4.979,0-9.666-1.267-13.759-3.494c0.041-0.179,0.081-0.361,0.121-0.555  c0.244-1.177,2.063-1.742,2.844-2.521c0.761-0.762,2.275-1.223,2.745-2.219c0.308-0.653-0.128-1.49,0.134-2.099  c0.199-0.458,0.958-0.957,1.314-1.314c0.894-0.894,1.564-3.22,1.564-4.442c-1.338,0-2.675,0-4.012,0  c-1.267,0-1.021-1.498-1.026-2.429c-0.001-0.5,0.031-1.111-0.212-1.568c-0.277-0.52-1.174-0.368-1.655-0.612  c-0.837-0.425-1.531-1.257-1.695-2.192c-0.108-0.613-0.086-1.062-0.857-1.032c-0.758,0.032-1.462,0.639-2.167,0.639  c-0.885,0-1.77,0-2.655,0c-1.957,0-3.914,0-5.869,0c0,0.317-0.18,1.349,0.109,1.494c0.723,0.36,1.445,0.722,2.167,1.083  c1.078,0.54,1.394,1.889,1.921,2.941c0.518,1.036,1.105,2.054,1.559,3.116c0.562,1.314,0.97,2.777,1.993,3.833  c0.431,0.445,1.267,0.354,1.45,0.967c0.232,0.77-0.007,1.71-0.184,2.468c-0.196,0.839-0.442,1.668-0.659,2.502  c-5.966-4.296-10.229-10.807-11.581-18.319c0.402-0.031,0.805-0.085,1.039-0.085c0.78,0,0.804-0.058,1.369-0.621  c0.495-0.495,0.817-0.642,0.817-1.324c0-0.79,0-1.583,0-2.372c0.96,0.479,1.918,0.96,2.878,1.438  c0.042-1.163,0.873-1.312,1.831-1.473c1.138-0.188,1.887-1.405,2.941-1.405c0.869,0,1.23,0.166,2.046,0.43  c0.428,0.141,0.965,0.304,1.412,0.165c0.601-0.188,0.459-1.261,0.667-1.743c0.299-0.697,0.754-1.683,1.56-1.75  c0.876-0.07,2.012-0.465,1.056-1.419c-1.049-1.049-1.833-2.387-2.542-3.68c-0.303-0.555-0.379-1.43-0.89-1.813  c-1.116-0.838-2.792,0.298-3.63,1.05c-0.471,0.425,0.268,1.402-0.379,1.675c-1.052,0.446-2.425,0.804-3.511,0.285  c-0.592-0.283-0.958-0.977-1.63-1.101c-0.464-0.084-0.37-0.214-0.37-0.734c0-0.876,0-1.754,0-2.631c0-0.364,0.101-0.221,0.432-0.316  c1.303-0.374,0.534-2.07,1.825-2.091c1.497-0.025,0.019-2.576-0.386-3.096c-0.227-0.292-0.453-0.423-0.7-0.482  c5.295-6.638,13.444-10.903,22.576-10.903c8.311,0,15.809,3.534,21.082,9.173c-1.552,1.686-3.22,3.605-4.354,4.456  c-0.778,0.583-1.786,0.937-2.655,1.371c-0.867,0.435-2.043,0.202-2.993,0.202c-0.247,0-3.165-0.04-3.165,0.036  c0,0.865,0.433,2.625-0.402,3.044c-0.997,0.498-2.116,0.878-2.909,1.669c-0.225,0.225-1.146,0.867-0.881,1.133  c0.001,0.001,0.002,0.002,0.004,0.003c-0.145-0.078-0.294-0.128-0.449-0.123c-1.129,0.038-2.53,0.086-3.514,0.708  c-0.624,0.394-0.455,0.99-0.538,1.645c-0.094,0.736-0.325,1.515-0.854,2.06c-0.632,0.652-0.531,0.759-0.531,1.817  c1.119-0.124,2.24-0.249,3.362-0.372c0.132-0.018,0.955-0.022,0.955-0.169c0-0.278-0.157-1.22,0.034-1.411  c0.424-0.424,0.853-0.853,1.28-1.28c0.259-0.259,0.73,0.48,0.942,0.693c0.39,0.389,0.771,0.472,0.357,0.882  c-0.391,0.394-0.784,0.787-1.175,1.178c0.174,0,1.437,0.047,1.44-0.033c0.051-1.074,0.701-2.108,1.438-2.845  c0.796-0.796,1.887-0.805,2.745-0.117c0.347,0.28,0.134,1.179,0.134,1.556c0,0.253-0.07,2.878,0.062,2.878  c0.633,0,1.185,0.146,1.67-0.265c1.667-1.403,3.848-1.067,5.464-2.613c0.479,0.959,0.96,1.918,1.439,2.878  c-1.143,0.382-2.287,0.762-3.43,1.143c-0.09,0.029-0.862,0.346-0.902,0.269c-0.261-0.513-0.539-1.039-0.894-1.495  c-0.472-0.607-0.59-0.08-0.497,0.478c0.151,0.922,0.736,1.785,1.371,2.451c0.666,0.698,1.039,2.043,1.473,2.912  c-0.09-1.769,2.485,1.045,2.879,1.438c0.608-0.608,1.22-1.22,1.827-1.826c0.304-0.304,0.604-0.604,0.905-0.905  c0.244-0.245-0.028-0.315-0.216-0.579c-1.016-1.42,1.593-1.007,2.386-1.007c1.498,0,2.637,0.391,3.732,1.439  C76.322,51.74,77.753,53.287,78.073,53.609z"/><path xmlns="http://www.w3.org/2000/svg" fill="#000000" d="M52.289,37.419c-0.318,0.32-0.64,0.639-0.958,0.96c-0.328,0.12-0.87,0.143-0.89,0.521  c-0.024,0.467-0.045,0.931-0.07,1.398c0.627-0.313,1.254-0.627,1.88-0.939C52.451,39.258,52.289,37.697,52.289,37.419z"/><path xmlns="http://www.w3.org/2000/svg" fill="#000000" d="M55.143,35.98c0.357,0,0.984,0.2,0.984-0.225c0-0.009,0-0.019,0-0.027c0.069,0.137,0.193,0.223,0.386,0.241  c-0.115,0.484-0.241,0.968-0.386,1.451c0.438-0.438,0.874-0.875,1.313-1.314c0.294-0.294,0.125-1.03,0.125-1.42  c0-0.068,0-0.137,0-0.206c0-0.938,0-1.878,0-2.817c-0.027,0.055-0.075,0.144-0.132,0.248c-0.018-0.203-0.027-0.402-0.048-0.607  c-0.056,0.337-0.111,0.671-0.167,1.006c-0.368,0.688-0.897,1.733-1.092,2.534c0-0.121,0-0.242,0-0.363c0-0.938,0-1.878,0-2.817  C55.836,32.244,53.612,35.98,55.143,35.98z"/><path xmlns="http://www.w3.org/2000/svg" fill="#000000" d="M68.034,58.973c0.94-0.157,1.805-0.756,2.485-1.405c-1.067-0.355-2.131-0.711-3.199-1.066  c-1.194-0.398-1.197-0.527-1.775-1.686c-0.453-0.909-0.766-1.549-1.471-2.254c-0.515-0.515-2.19-1.66-2.19-2.415  c0-1.149,0.223-1.214-0.853-1.214c-1.348,0-2.695,0-4.044,0c-2.206,0-4.411,0-6.616,0c-0.87,0.882-1.714,1.841-2.353,2.906  c-1.137,1.895,0.285,2.842,1.53,4.205c1.332,1.457,0.816,3.931,3.308,4.368c0.889,0.154,1.894,0.033,2.794,0.033  c0.107,0,2.08-0.278,1.89-0.624c0.209,0.375,0.094,1.417,0.168,1.872c0.169,1.021,0.39,2.035,0.616,3.044  c0.267,1.203,0.683,2.39,0.683,3.624c0,1.269,1.321,2.04,2.189,2.909c0.33,0.33,0.519,0.688,0.988,0.688c0.811,0,1.626,0,2.438,0  c0.404,0-0.35-4.992,0.929-5.623c0.365-0.18,1.087,0.021,1.303-0.396c0.149-0.283-0.014-0.631,0.135-0.913  c0.358-0.69,1.203-0.016,1.285-1.152c0.064-0.922-0.099-2.825-0.749-3.555C66.734,59.431,66.98,59.15,68.034,58.973z"/><path xmlns="http://www.w3.org/2000/svg" fill="#000000" d="M46.035,28.767c-0.732-0.723-1.521-1.408-2.367-1.996c-1.143-0.794-2.004-0.865-3.372-0.865  c-0.654,0-1.321-0.045-1.973,0.008c-0.281,0.023-0.172,0.337-0.253,0.545c-0.491,1.256-2.532,2.765-3.531,3.764  c1.382,0,2.153,2.867,2.677,3.915c0.315,0.629,0.202,1.283,0.202,1.986c0,1.029-0.089,1.207,0.622,1.918  c0.706,0.706,0.646,0.989,1.343,0.292c0.701-0.701,1.401-1.401,2.101-2.101c0.46-0.462,0.251-1.21,0.251-1.836  c0-0.924-0.328-1.295,0.607-1.295c0.718,0,1.392,0.064,1.97-0.432c0.438-0.378,0.779-0.854,1.381-0.973  c0.668-0.132,2.08-0.371,1.798-1.474C47.377,29.776,46.377,29.105,46.035,28.767z"/></g><g id="SvgjsG7306" featureKey="text1" fill="#000" transform="matrix(9.204672074829237,0,0,9.204672074829237,371.6613216227675,-72.10125482816805)"><path d="M9.78 18.42 c0.78 -1.32 1.1 -2.92 1.68 -4.4 c0.52 -1.5 1.32 -2.86 1.94 -4.2 c0.26 -0.02 0.52 -0.02 0.76 -0.02 c0.62 0 1.2 0.04 1.76 0.04 c0.42 0 0.78 -0.04 1.3 -0.04 c0.34 0 0.86 0.14 1.28 0.14 l0.1 0 c0.08 0.36 0.1 0.74 0.1 1.12 l0 0.88 l0 0.22 c-0.16 0.12 -0.36 0.14 -0.58 0.14 c-0.2 0 -0.4 -0.02 -0.54 -0.04 l0 1.26 c0 2.62 -0.14 5 -0.26 7.9 c0.32 0.14 0.7 0.2 1 0.32 c0.04 0.2 0.06 0.38 0.06 0.58 c0 0.3 -0.04 0.6 -0.04 0.92 c0 0.24 0.02 0.46 0.08 0.72 c-0.22 0.12 -0.5 0.16 -0.78 0.16 c-0.5 0 -1.08 -0.12 -1.62 -0.12 c-0.82 0 -1.42 0.14 -2.12 0.14 c-0.3 0 -1.1 -0.1 -1.1 -0.12 c0 0 0 -0.02 0.02 -0.02 c-0.04 0 -0.06 -0.04 -0.06 -0.06 c0 -0.06 0.04 -0.14 0.04 -0.18 c0 -0.2 -0.04 -0.6 -0.04 -1.02 c0 -0.28 0 -0.56 0.02 -0.8 c0.26 -0.28 0.82 -0.18 1.32 -0.22 c-0.06 -1.04 -0.08 -2.02 -0.08 -3 s0.02 -1.96 0.02 -2.96 c-0.76 1.6 -1.56 3.18 -2.04 5.06 c-0.22 0.4 -0.54 1.22 -0.74 1.76 c-0.22 0.56 -0.32 1.44 -0.94 1.44 c-0.24 0 -0.52 -0.08 -0.8 -0.08 c-0.2 0 -0.4 0.04 -0.58 0.18 c-0.44 -0.06 -0.88 -1.82 -1.06 -2.34 c-0.8 -2.2 -1.66 -4.8 -2.38 -6.9 l0 0.78 c0 1.32 0.04 2.56 0.04 3.9 c0 0.64 0 1.3 -0.04 1.98 c0.18 0 0.46 -0.1 0.72 -0.1 c0.08 0 0.16 0.02 0.24 0.04 c0.16 0.54 0.12 1.34 0.16 1.94 c-0.02 0.58 -0.18 0.58 -0.42 0.6 c-1.36 0.02 -3.28 0.2 -4.84 0.2 c-0.24 -0.16 -0.5 0.12 -0.5 -0.68 c0 -0.52 0.12 -1.02 0.12 -1.54 c0 -0.12 0 -0.26 -0.02 -0.38 c0.22 -0.1 0.46 -0.18 0.78 -0.18 c0.16 0 0.34 0.02 0.54 0.06 c0.02 -0.54 0.04 -1.1 0.04 -1.68 c0 -1.2 -0.14 -2.4 -0.14 -3.52 c0 -0.98 0.1 -1.94 0.1 -2.88 c0 -0.32 0.06 -1.14 -0.22 -1.14 c-0.36 0 -0.7 0.1 -1.02 0.1 c-0.12 0 -0.24 -0.02 -0.36 -0.06 c-0.12 -0.64 -0.06 -1.72 -0.1 -2.36 c0.48 -0.18 0.96 -0.24 1.44 -0.24 c0.56 0 1.14 0.06 1.74 0.06 c0.62 0 1.1 -0.1 1.88 -0.1 c0.46 0 0.56 0.74 0.88 1.3 c0.24 0.42 0.56 0.8 0.72 1.12 c0.42 0.88 0.66 1.76 1.02 2.68 c0.16 0.42 0.42 0.86 0.6 1.26 c0.34 0.8 0.52 1.64 0.92 2.38 z M30.3 10 c0.24 0.58 0.04 1.82 0.12 2.34 c-0.26 0.28 -0.86 0.02 -1.28 0.12 c0.04 0.82 0.02 1.62 0.02 2.54 c0.02 0.94 -0.2 1.72 -0.1 2.58 c0.04 0.22 0.08 1.12 0.08 1.36 c0.08 1.08 -0.08 2.92 -0.66 3.84 c-0.46 0.8 -1.88 1.32 -3.02 1.48 c-1.18 0.14 -2.68 0.04 -3.82 -0.26 c-0.7 -0.18 -1.4 -0.36 -1.78 -0.84 c0.08 -0.72 -0.04 -2.26 -0.04 -2.9 c0.14 -0.32 0.48 -0.18 0.76 -0.16 c0.82 0.06 1.84 -0.1 2.32 0.38 c0.02 0.2 -0.06 1.18 -0.02 1.38 c0.84 0.16 1.9 0.1 2.68 -0.38 c0.1 -0.14 0.18 -0.46 0.28 -0.6 c0.28 -1.16 0.28 -2.02 0.28 -3.3 c0 -1.14 -0.1 -2.34 -0.14 -3.48 c-0.02 -0.58 0.04 -1.14 0.06 -1.68 c-0.44 -0.08 -1.18 0.26 -1.42 -0.24 c-0.16 -0.26 0.04 -0.82 0.04 -1.26 c-0.02 -0.34 -0.16 -0.56 -0.14 -0.9 c0.12 -0.14 0.4 -0.14 0.5 -0.12 c1.46 0.22 4.02 -0.24 5.28 0.1 z M40.76 18.42 c0.78 -1.32 1.1 -2.92 1.68 -4.4 c0.52 -1.5 1.32 -2.86 1.94 -4.2 c0.26 -0.02 0.52 -0.02 0.76 -0.02 c0.62 0 1.2 0.04 1.76 0.04 c0.42 0 0.78 -0.04 1.3 -0.04 c0.34 0 0.86 0.14 1.28 0.14 l0.1 0 c0.08 0.36 0.1 0.74 0.1 1.12 l0 0.88 l0 0.22 c-0.16 0.12 -0.36 0.14 -0.58 0.14 c-0.2 0 -0.4 -0.02 -0.54 -0.04 l0 1.26 c0 2.62 -0.14 5 -0.26 7.9 c0.32 0.14 0.7 0.2 1 0.32 c0.04 0.2 0.06 0.38 0.06 0.58 c0 0.3 -0.04 0.6 -0.04 0.92 c0 0.24 0.02 0.46 0.08 0.72 c-0.22 0.12 -0.5 0.16 -0.78 0.16 c-0.5 0 -1.08 -0.12 -1.62 -0.12 c-0.82 0 -1.42 0.14 -2.12 0.14 c-0.3 0 -1.1 -0.1 -1.1 -0.12 c0 0 0 -0.02 0.02 -0.02 c-0.04 0 -0.06 -0.04 -0.06 -0.06 c0 -0.06 0.04 -0.14 0.04 -0.18 c0 -0.2 -0.04 -0.6 -0.04 -1.02 c0 -0.28 0 -0.56 0.02 -0.8 c0.26 -0.28 0.82 -0.18 1.32 -0.22 c-0.06 -1.04 -0.08 -2.02 -0.08 -3 s0.02 -1.96 0.02 -2.96 c-0.76 1.6 -1.56 3.18 -2.04 5.06 c-0.22 0.4 -0.54 1.22 -0.74 1.76 c-0.22 0.56 -0.32 1.44 -0.94 1.44 c-0.24 0 -0.52 -0.08 -0.8 -0.08 c-0.2 0 -0.4 0.04 -0.58 0.18 c-0.44 -0.06 -0.88 -1.82 -1.06 -2.34 c-0.8 -2.2 -1.66 -4.8 -2.38 -6.9 l0 0.78 c0 1.32 0.04 2.56 0.04 3.9 c0 0.64 0 1.3 -0.04 1.98 c0.18 0 0.46 -0.1 0.72 -0.1 c0.08 0 0.16 0.02 0.24 0.04 c0.16 0.54 0.12 1.34 0.16 1.94 c-0.02 0.58 -0.18 0.58 -0.42 0.6 c-1.36 0.02 -3.28 0.2 -4.84 0.2 c-0.24 -0.16 -0.5 0.12 -0.5 -0.68 c0 -0.52 0.12 -1.02 0.12 -1.54 c0 -0.12 0 -0.26 -0.02 -0.38 c0.22 -0.1 0.46 -0.18 0.78 -0.18 c0.16 0 0.34 0.02 0.54 0.06 c0.02 -0.54 0.04 -1.1 0.04 -1.68 c0 -1.2 -0.14 -2.4 -0.14 -3.52 c0 -0.98 0.1 -1.94 0.1 -2.88 c0 -0.32 0.06 -1.14 -0.22 -1.14 c-0.36 0 -0.7 0.1 -1.02 0.1 c-0.12 0 -0.24 -0.02 -0.36 -0.06 c-0.12 -0.64 -0.06 -1.72 -0.1 -2.36 c0.48 -0.18 0.96 -0.24 1.44 -0.24 c0.56 0 1.14 0.06 1.74 0.06 c0.62 0 1.1 -0.1 1.88 -0.1 c0.46 0 0.56 0.74 0.88 1.3 c0.24 0.42 0.56 0.8 0.72 1.12 c0.42 0.88 0.66 1.76 1.02 2.68 c0.16 0.42 0.42 0.86 0.6 1.26 c0.34 0.8 0.52 1.64 0.92 2.38 z M60.68 16.52 c0.62 0.28 1.54 0.82 1.86 1.64 c0.12 0.3 0.32 0.88 0.38 1.2 c0.32 1.48 -0.32 2.94 -1.14 3.62 c-0.1 0.08 -0.4 0.32 -0.5 0.44 c-0.68 0.56 -2.02 0.64 -3.08 0.7 c-1.2 0.06 -2.56 -0.08 -3.74 -0.02 c-1.12 0.04 -2.16 0.22 -3.14 0.14 c-0.34 -0.06 -0.26 -0.12 -0.32 -0.42 c0.06 -0.5 -0.14 -1.18 0.1 -1.98 c0.34 -0.16 0.72 -0.04 1.16 -0.02 c0.1 -3.06 0.2 -6.62 0.12 -9.54 c-0.58 -0.22 -1.34 0.2 -1.62 -0.24 c-0.14 -0.22 0.02 -0.62 0 -0.92 c0 -0.4 -0.18 -0.78 0 -1.1 c0.88 -0.26 1.32 -0.16 2.4 -0.2 c0.34 -0.04 1.34 0 2.04 -0.04 c1.54 -0.08 4.12 -0.16 5.36 0.46 c0.62 0.36 1.34 0.82 1.58 1.62 c0.14 0.5 0.26 1.74 0.22 2.26 c-0.1 1.04 -1 2.18 -1.68 2.4 z M58.86 14.94 c0.22 -0.5 0.2 -1.2 0 -1.84 c-0.22 -0.7 -2.38 -0.62 -3.02 -0.66 c-0.2 1.06 0.06 2.24 0.04 3.1 c1.22 -0.06 2.58 0.36 2.98 -0.6 z M59.74 19.62 c-0.14 -0.98 -1.46 -1.42 -2.46 -1.36 c-0.62 0.04 -1.02 -0.06 -1.6 0.02 c-0.16 1.02 0.16 2.18 -0.14 3.32 c1.88 0.38 4.46 0.04 4.2 -1.98 z"/></g><g id="SvgjsG7307" featureKey="text3" fill="#000" transform="matrix(1.662050348867244,0,0,1.662050348867244,257.00553950210656,217.71190626409006)"><path d="M3.4 21.96 l6.34 0 l0 2.04 l-6.74 0 l-1.8 0 l0 -14 l2.2 0 l6.16 0 l0 2.04 l-6.16 0 l0 3.92 l4.74 0 l0 2 l-4.74 0 l0 4 z M38.856 24 l-2.6 0 l-3.6 -5.24 l-3.58 5.24 l-2.6 0 l4.88 -7.14 l-4.72 -6.86 l2.6 0 l3.42 4.96 l3.38 -4.96 l2.6 0 l-4.68 6.86 z M60.592000000000006 10 c3.14 0 5.06 1.92 5.06 4.62 s-1.92 4.5 -5.06 4.5 l-2.5 0 l0 4.88 l-2.2 0 l0 -14 l4.7 0 z M60.492000000000004 17.2 c1.78 0 2.96 -0.84 2.96 -2.58 s-1.18 -2.58 -2.96 -2.58 l-2.4 0 l0 5.16 l2.4 0 z M84.888 21.96 l5.94 0 l0 2.04 l-8.14 0 l0 -14 l2.2 0 l0 11.96 z M114.864 9.8 c3.76 0 7.2 2.96 7.2 7.2 s-3.44 7.2 -7.2 7.2 s-7.2 -2.96 -7.2 -7.2 s3.44 -7.2 7.2 -7.2 z M114.864 22.12 c2.58 0 4.92 -2.12 4.92 -5.12 s-2.34 -5.12 -4.92 -5.12 s-4.92 2.12 -4.92 5.12 s2.34 5.12 4.92 5.12 z M149.90000000000003 24 l-2.36 0 l-3.3 -4.88 l-0.24 0 l-2.5 0 l0 4.88 l-2.2 0 l0 -14 l4.7 0 c3.14 0 5.06 1.92 5.06 4.62 c0 1.96 -1.02 3.46 -2.78 4.12 z M141.50000000000003 12.04 l0 5.16 l2.4 0 c1.78 0 2.96 -0.84 2.96 -2.58 s-1.18 -2.58 -2.96 -2.58 l-2.4 0 z M169.03600000000003 21.96 l6.34 0 l0 2.04 l-6.74 0 l-1.8 0 l0 -14 l2.2 0 l6.16 0 l0 2.04 l-6.16 0 l0 3.92 l4.74 0 l0 2 l-4.74 0 l0 4 z M203.21200000000005 24 l-2.36 0 l-3.3 -4.88 l-0.24 0 l-2.5 0 l0 4.88 l-2.2 0 l0 -14 l4.7 0 c3.14 0 5.06 1.92 5.06 4.62 c0 1.96 -1.02 3.46 -2.78 4.12 z M194.81200000000004 12.04 l0 5.16 l2.4 0 c1.78 0 2.96 -0.84 2.96 -2.58 s-1.18 -2.58 -2.96 -2.58 l-2.4 0 z  M253.08400000000003 22.22 c0.46 0 0.86 -0.12 1.28 -0.36 l0 1.8 c-0.42 0.32 -0.84 0.46 -1.52 0.46 c-1.42 0 -2.04 -0.9 -2.04 -2.2 l0 -0.28 c-0.64 1.52 -2.02 2.6 -4.36 2.6 c-2.62 0 -5.16 -1.54 -5.16 -4.6 c0 -2.48 1.82 -3.84 3.64 -4.14 l-3.04 -5.5 l8.98 0 l0 1.9 l-5.96 0 l2.82 5.1 l-1 0 c-1.82 0 -3.24 1.04 -3.24 2.64 c0 1.74 1.42 2.7 3.14 2.7 c1.74 0 3.4 -1 3.4 -3.06 l0 -3.6 l3.72 0 l0 1.8 l-1.56 0 l0 3.68 c0 0.82 0.34 1.06 0.9 1.06 z  M294.73600000000005 21.96 l6.34 0 l0 2.04 l-6.74 0 l-1.8 0 l0 -14 l2.2 0 l6.16 0 l0 2.04 l-6.16 0 l0 3.92 l4.74 0 l0 2 l-4.74 0 l0 4 z M327.81200000000007 10 l2.2 0 l0 14 l-1.68 0 l-7.82 -9.98 l0 9.98 l-2.2 0 l0 -14 l1.7 0 l7.8 10 l0 -10 z M360.7680000000001 16.78 c0.44 4.58 -2.62 7.42 -6.32 7.42 c-3.84 0 -7.2 -2.96 -7.2 -7.2 s3.44 -7.2 7.2 -7.2 c1.8 0 3.42 0.6 4.66 1.66 l-1.34 1.52 c-0.88 -0.68 -2.02 -1.1 -3.18 -1.1 c-2.72 0 -5.06 2.12 -5.06 5.12 s2.26 5.12 4.92 5.12 c2.22 0 3.86 -1.02 4.28 -3.44 l-3.74 0 l0 -1.9 l5.78 0 z M380.244 10 l0 14 l-2.2 0 l0 -14 l2.2 0 z M407.28000000000003 10 l2.2 0 l0 14 l-1.68 0 l-7.82 -9.98 l0 9.98 l-2.2 0 l0 -14 l1.7 0 l7.8 10 l0 -10 z M429.216 21.96 l6.34 0 l0 2.04 l-6.74 0 l-1.8 0 l0 -14 l2.2 0 l6.16 0 l0 2.04 l-6.16 0 l0 3.92 l4.74 0 l0 2 l-4.74 0 l0 4 z M454.992 21.96 l6.34 0 l0 2.04 l-6.74 0 l-1.8 0 l0 -14 l2.2 0 l6.16 0 l0 2.04 l-6.16 0 l0 3.92 l4.74 0 l0 2 l-4.74 0 l0 4 z M489.16800000000006 24 l-2.36 0 l-3.3 -4.88 l-0.24 0 l-2.5 0 l0 4.88 l-2.2 0 l0 -14 l4.7 0 c3.14 0 5.06 1.92 5.06 4.62 c0 1.96 -1.02 3.46 -2.78 4.12 z M480.76800000000003 12.04 l0 5.16 l2.4 0 c1.78 0 2.96 -0.84 2.96 -2.58 s-1.18 -2.58 -2.96 -2.58 l-2.4 0 z"/></g>
			</g>
		</svg>
	